# xmcd
#
# Track frame offsets:
#	150
#	18454
#	29177
#	49869
#	75378
#	91521
#	107511
#	123267
#	139528
#	153021
#	171228
#	189121
#
# Disc length: 2661 seconds
#
# Revision: 1
# Processed by: cddbd v1.5.2PL0 Copyright (c) Steve Scherf et al.
# Submitted via: audiograbber 1.83.01
#
DISCID=840a630c
DTITLE=Gino Devos and Heidi Gabrielle - Life is a beautiful song
DYEAR=2014
DGENRE=Country
TTITLE0=Calamity Jane
TTITLE1=The Devil and me
TTITLE2=My love song for you
TTITLE3=Ol'Rock Daisy Road
TTITLE4=Life is a beautiful song 
TTITLE5=The air that I breath
TTITLE6=No No it will never change!
TTITLE7=Mama's Note
TTITLE8=House of Gold
TTITLE9=Oh how I love Christmas
TTITLE10=Sweet mister songman
TTITLE11=Stand by me
EXTD=
EXTT0=Music and Lyrics:\nGino Devos - Heidi Hopstaken
EXTT1=Music and Lyrics:\nMead C. - arrangement: Gino Devos - Heidi Hopstaken
EXTT2=Music and Lyrics:\nGino Devos - Heidi Hopstaken
EXTT3=Music and Lyrics:\nGino Devos - Heidi Hopstaken
EXTT4=Music and Lyrics:\nGino Devos - Heidi Hopstaken
EXTT5=Music and Lyrics:\nHammond - Hazlewood
EXTT6=Music and Lyrics:\nF. Bernheim - Gino Devos - Heidi Hopstaken
EXTT7=Music and Lyrics:\nGino Devos - Heidi Hopstaken
EXTT8=Music and Lyrics:\nHank Williams 
EXTT9=Music and Lyrics:\nGino Devos - Heidi Hopstaken
EXTT10=Music and Lyrics:\nArrangement - Gino Devos - Heidi Hopstaken
EXTT11=Music and Lyrics:\nTraditional - arrangement: Gino Devos - Heidi Hopstak
EXTT11=en
PLAYORDER=
